<svg width="24" height="24" viewBox="0 0 24 24" fill="none" xmlns="http://www.w3.org/2000/svg">
<path d="M15.5909 12.26C18.4242 12.26 20.7209 9.96323 20.7209 7.13C20.7209 4.29678 18.4242 2 15.5909 2C12.7577 2 10.4609 4.29678 10.4609 7.13C10.4609 9.96323 12.7577 12.26 15.5909 12.26Z" stroke="#545D6E" stroke-width="1.5" stroke-miterlimit="10"/>
<path d="M6.35928 19.4403C8.06032 19.4403 9.4393 18.0613 9.4393 16.3603C9.4393 14.6592 8.06032 13.2803 6.35928 13.2803C4.65825 13.2803 3.2793 14.6592 3.2793 16.3603C3.2793 18.0613 4.65825 19.4403 6.35928 19.4403Z" stroke="#545D6E" stroke-width="1.5" stroke-miterlimit="10"/>
<path d="M16.6205 21.9999C18.0344 21.9999 19.1805 20.8537 19.1805 19.4399C19.1805 18.026 18.0344 16.8799 16.6205 16.8799C15.2067 16.8799 14.0605 18.026 14.0605 19.4399C14.0605 20.8537 15.2067 21.9999 16.6205 21.9999Z" stroke="#545D6E" stroke-width="1.5" stroke-miterlimit="10"/>
</svg>
