<svg width="24" height="24" viewBox="0 0 24 24" fill="none" xmlns="http://www.w3.org/2000/svg">
<path d="M21.9703 11.9998C21.9703 14.9398 20.6903 17.5998 18.6503 19.4098C16.8903 21.0098 14.5603 21.9698 12.0003 21.9698C6.50027 21.9698 2.03027 17.4998 2.03027 11.9998C2.03027 6.49979 6.50027 2.02979 12.0003 2.02979C14.5603 2.02979 16.8903 2.98979 18.6503 4.58979C20.6903 6.39979 21.9703 9.05979 21.9703 11.9998Z" stroke="#00DB65" stroke-width="1.5" stroke-linecap="round" stroke-linejoin="round"/>
<path d="M11.9703 16.3902C11.9503 18.0402 10.7203 18.4402 9.57027 17.9802C7.20027 17.0302 5.53027 14.7102 5.53027 12.0002C5.53027 9.29024 7.20027 6.97024 9.57027 6.01024C10.7203 5.55024 11.9503 5.96024 11.9703 7.60024V16.3902Z" stroke="#00DB65" stroke-width="1.5" stroke-linecap="round" stroke-linejoin="round"/>
</svg>
