<svg width="19" height="19" viewBox="0 0 19 19" fill="none" xmlns="http://www.w3.org/2000/svg">
<path fill-rule="evenodd" clip-rule="evenodd" d="M2.08727 2.08727C3.23554 0.93901 4.95379 0.5 7.1686 0.5H12.3314C14.5462 0.5 16.2645 0.93901 17.4127 2.08727C18.561 3.23554 19 4.95379 19 7.1686V12.3314C19 14.5462 18.561 16.2645 17.4127 17.4127C16.2645 18.561 14.5462 19 12.3314 19H7.1686C4.95379 19 3.23554 18.561 2.08727 17.4127C0.93901 16.2645 0.5 14.5462 0.5 12.3314V7.1686C0.5 4.95379 0.93901 3.23554 2.08727 2.08727ZM2.99994 2.99994C2.21215 3.78772 1.7907 5.08109 1.7907 7.1686V12.3314C1.7907 14.4189 2.21215 15.7123 2.99994 16.5001C3.78772 17.2878 5.08109 17.7093 7.1686 17.7093H12.3314C14.4189 17.7093 15.7123 17.2878 16.5001 16.5001C17.2878 15.7123 17.7093 14.4189 17.7093 12.3314V7.1686C17.7093 5.08109 17.2878 3.78772 16.5001 2.99994C15.7123 2.21215 14.4189 1.7907 12.3314 1.7907H7.1686C5.08109 1.7907 3.78772 2.21215 2.99994 2.99994Z" fill="white"/>
<path fill-rule="evenodd" clip-rule="evenodd" d="M5.87793 7.16879C5.87793 6.81237 6.16686 6.52344 6.52328 6.52344H12.9768C13.3332 6.52344 13.6221 6.81237 13.6221 7.16879C13.6221 7.5252 13.3332 7.81414 12.9768 7.81414H6.52328C6.16686 7.81414 5.87793 7.5252 5.87793 7.16879Z" fill="white"/>
<path fill-rule="evenodd" clip-rule="evenodd" d="M5.87793 12.3314C5.87793 11.975 6.16686 11.686 6.52328 11.686H12.9768C13.3332 11.686 13.6221 11.975 13.6221 12.3314C13.6221 12.6878 13.3332 12.9767 12.9768 12.9767H6.52328C6.16686 12.9767 5.87793 12.6878 5.87793 12.3314Z" fill="white"/>
</svg>
