<svg width="22" height="22" viewBox="0 0 22 22" fill="none" xmlns="http://www.w3.org/2000/svg">
<path d="M5.00553 16.9489V14.2722C5.00553 13.3831 5.7022 12.5856 6.6922 12.5856C7.58136 12.5856 8.37886 13.2822 8.37886 14.2722V16.8481C8.37886 18.6356 6.89387 20.1206 5.10637 20.1206C3.31887 20.1206 1.83387 18.6264 1.83387 16.8481V11.2014C1.73303 6.04974 5.80303 1.87891 10.9547 1.87891C16.1064 1.87891 20.1672 6.04974 20.1672 11.1006V16.7472C20.1672 18.5347 18.6822 20.0197 16.8947 20.0197C15.1072 20.0197 13.6222 18.5347 13.6222 16.7472V14.1714C13.6222 13.2822 14.3189 12.4847 15.3089 12.4847C16.198 12.4847 16.9955 13.1814 16.9955 14.1714V16.9489" stroke="#545D6E" stroke-width="1.5" stroke-linecap="round" stroke-linejoin="round"/>
</svg>
