<svg width="140" height="44" viewBox="0 0 140 44" fill="none" xmlns="http://www.w3.org/2000/svg">
<path d="M5.5 16.7015V27.2798C5.5 31.1665 5.5 31.1665 9.16667 33.6415L19.25 39.4715C20.7717 40.3515 23.2467 40.3515 24.75 39.4715L34.8333 33.6415C38.5 31.1665 38.5 31.1665 38.5 27.2982V16.7015C38.5 12.8332 38.5 12.8332 34.8333 10.3582L24.75 4.52816C23.2467 3.64816 20.7717 3.64816 19.25 4.52816L9.16667 10.3582C5.5 12.8332 5.5 12.8332 5.5 16.7015Z" stroke="white" stroke-width="2.75" stroke-linecap="round" stroke-linejoin="round"/>
<path d="M22 27.5C25.0376 27.5 27.5 25.0376 27.5 22C27.5 18.9624 25.0376 16.5 22 16.5C18.9624 16.5 16.5 18.9624 16.5 22C16.5 25.0376 18.9624 27.5 22 27.5Z" stroke="white" stroke-width="2.75" stroke-linecap="round" stroke-linejoin="round"/>
<path d="M50.6499 30V13.2727H61.3658V15.8129H53.68V20.354H60.6307V22.8942H53.68V30H50.6499ZM68.5471 30.245C67.322 30.245 66.2602 29.9755 65.3618 29.4364C64.4633 28.8974 63.7664 28.1432 63.2709 27.174C62.7808 26.2048 62.5358 25.0722 62.5358 23.7763C62.5358 22.4804 62.7808 21.3451 63.2709 20.3704C63.7664 19.3957 64.4633 18.6388 65.3618 18.0998C66.2602 17.5607 67.322 17.2912 68.5471 17.2912C69.7723 17.2912 70.8341 17.5607 71.7325 18.0998C72.6309 18.6388 73.3252 19.3957 73.8153 20.3704C74.3108 21.3451 74.5585 22.4804 74.5585 23.7763C74.5585 25.0722 74.3108 26.2048 73.8153 27.174C73.3252 28.1432 72.6309 28.8974 71.7325 29.4364C70.8341 29.9755 69.7723 30.245 68.5471 30.245ZM68.5635 27.8764C69.2278 27.8764 69.7832 27.694 70.2297 27.3292C70.6762 26.9589 71.0083 26.4634 71.2261 25.8427C71.4494 25.2219 71.561 24.5304 71.561 23.7681C71.561 23.0004 71.4494 22.3061 71.2261 21.6854C71.0083 21.0592 70.6762 20.561 70.2297 20.1907C69.7832 19.8204 69.2278 19.6353 68.5635 19.6353C67.8828 19.6353 67.3166 19.8204 66.8646 20.1907C66.4181 20.561 66.0832 21.0592 65.86 21.6854C65.6422 22.3061 65.5333 23.0004 65.5333 23.7681C65.5333 24.5304 65.6422 25.2219 65.86 25.8427C66.0832 26.4634 66.4181 26.9589 66.8646 27.3292C67.3166 27.694 67.8828 27.8764 68.5635 27.8764ZM80.0247 13.2727V30H77.068V13.2727H80.0247ZM86.0218 13.2727V30H83.0651V13.2727H86.0218ZM94.5344 30.245C93.3093 30.245 92.2475 29.9755 91.3491 29.4364C90.4506 28.8974 89.7537 28.1432 89.2582 27.174C88.7681 26.2048 88.5231 25.0722 88.5231 23.7763C88.5231 22.4804 88.7681 21.3451 89.2582 20.3704C89.7537 19.3957 90.4506 18.6388 91.3491 18.0998C92.2475 17.5607 93.3093 17.2912 94.5344 17.2912C95.7596 17.2912 96.8214 17.5607 97.7198 18.0998C98.6183 18.6388 99.3125 19.3957 99.8026 20.3704C100.298 21.3451 100.546 22.4804 100.546 23.7763C100.546 25.0722 100.298 26.2048 99.8026 27.174C99.3125 28.1432 98.6183 28.8974 97.7198 29.4364C96.8214 29.9755 95.7596 30.245 94.5344 30.245ZM94.5508 27.8764C95.2151 27.8764 95.7705 27.694 96.217 27.3292C96.6635 26.9589 96.9956 26.4634 97.2134 25.8427C97.4367 25.2219 97.5483 24.5304 97.5483 23.7681C97.5483 23.0004 97.4367 22.3061 97.2134 21.6854C96.9956 21.0592 96.6635 20.561 96.217 20.1907C95.7705 19.8204 95.2151 19.6353 94.5508 19.6353C93.8701 19.6353 93.3039 19.8204 92.8519 20.1907C92.4054 20.561 92.0705 21.0592 91.8473 21.6854C91.6295 22.3061 91.5206 23.0004 91.5206 23.7681C91.5206 24.5304 91.6295 25.2219 91.8473 25.8427C92.0705 26.4634 92.4054 26.9589 92.8519 27.3292C93.3039 27.694 93.8701 27.8764 94.5508 27.8764ZM105.285 30L101.74 17.4545H104.754L106.959 26.2756H107.074L109.328 17.4545H112.309L114.563 26.2266H114.686L116.859 17.4545H119.881L116.328 30H113.248L110.896 21.522H110.725L108.372 30H105.285ZM121.945 30V17.4545H124.902V30H121.945ZM123.431 15.674C122.963 15.674 122.56 15.5188 122.223 15.2085C121.885 14.8926 121.716 14.5142 121.716 14.0732C121.716 13.6267 121.885 13.2482 122.223 12.9379C122.56 12.622 122.963 12.4641 123.431 12.4641C123.905 12.4641 124.308 12.622 124.64 12.9379C124.978 13.2482 125.147 13.6267 125.147 14.0732C125.147 14.5142 124.978 14.8926 124.64 15.2085C124.308 15.5188 123.905 15.674 123.431 15.674ZM127.779 30V28.1214L134.247 20.011V19.9048H127.991V17.4545H137.866V19.4719L131.707 27.4435V27.5497H138.078V30H127.779Z" fill="white"/>
</svg>
