<svg width="5" height="23" viewBox="0 0 5 23" fill="none" xmlns="http://www.w3.org/2000/svg">
<path fill-rule="evenodd" clip-rule="evenodd" d="M5 2.5C5 3.88086 3.88086 5 2.5 5C1.11914 5 0 3.88086 0 2.5C0 1.11914 1.11914 0 2.5 0C3.88086 0 5 1.11914 5 2.5ZM5 11.5C5 12.8809 3.88086 14 2.5 14C1.11914 14 0 12.8809 0 11.5C0 10.1191 1.11914 9 2.5 9C3.88086 9 5 10.1191 5 11.5ZM2.5 23C3.88086 23 5 21.8809 5 20.5C5 19.1191 3.88086 18 2.5 18C1.11914 18 0 19.1191 0 20.5C0 21.8809 1.11914 23 2.5 23Z" fill="#D9D9D9"/>
</svg>
